<svg width="35" height="35" viewBox="0 0 35 35" fill="none" xmlns="http://www.w3.org/2000/svg">
<g clip-path="url(#clip0_27_4959)">
<path d="M22.6771 18.9583C23.7708 18.9583 24.7333 18.3604 25.2291 17.4562L30.45 7.99166C30.9896 7.02916 30.2896 5.83332 29.1812 5.83332H7.5979L6.22706 2.91666H1.45831V5.83332H4.37498L9.62498 16.9021L7.65623 20.4604C6.59165 22.4146 7.99165 24.7917 10.2083 24.7917H27.7083V21.875H10.2083L11.8125 18.9583H22.6771ZM8.98331 8.74999H26.7021L22.6771 16.0417H12.4396L8.98331 8.74999ZM10.2083 26.25C8.60415 26.25 7.30623 27.5625 7.30623 29.1667C7.30623 30.7708 8.60415 32.0833 10.2083 32.0833C11.8125 32.0833 13.125 30.7708 13.125 29.1667C13.125 27.5625 11.8125 26.25 10.2083 26.25ZM24.7916 26.25C23.1875 26.25 21.8896 27.5625 21.8896 29.1667C21.8896 30.7708 23.1875 32.0833 24.7916 32.0833C26.3958 32.0833 27.7083 30.7708 27.7083 29.1667C27.7083 27.5625 26.3958 26.25 24.7916 26.25Z" fill="black"/>
</g>
<defs>
<clipPath id="clip0_27_4959">
<rect width="35" height="35" fill="white"/>
</clipPath>
</defs>
</svg>
